<svg width="45" height="45" viewBox="0 0 100 100" fill="none" xmlns="http://www.w3.org/2000/svg"><path d="M0 0h100v100H0V0z" fill="#CF4547"/><path d="M34.6 50.666c-.047.069-.129.282-.25.645a104.37 104.37 0 00-1 3.189l-.622 2.064c-.214.703-.417 1.39-.613 2.066a322.294 322.294 0 00-.915 3.2 21.2 21.2 0 01-.19.655c-.057.218-.149.46-.276.727a4.899 4.899 0 01-.449.756 2.752 2.752 0 01-.57.593 1.051 1.051 0 01-.638.235c-.368 0-.637-.123-.803-.368-.167-.245-.25-.695-.25-1.35v-.285c0-.096.005-.198.017-.306.011-.217.098-.627.258-1.228.16-.6.355-1.277.578-2.035.223-.758.466-1.54.725-2.353.258-.81.491-1.537.699-2.178a34.38 34.38 0 01-1.986 2.035 21.36 21.36 0 01-2.192 1.82c-.748.539-1.502.98-2.262 1.318-.76.341-1.49.511-2.192.511-.805 0-1.498-.178-2.08-.53a4.566 4.566 0 01-1.442-1.391 6.287 6.287 0 01-.846-1.943 8.755 8.755 0 01-.276-2.168v-.267c0-.082.006-.162.018-.245a24.73 24.73 0 01.56-4.029 32.761 32.761 0 011.2-4.109 38.017 38.017 0 011.718-3.998 35.068 35.068 0 012.123-3.69 28.723 28.723 0 012.443-3.2 19.42 19.42 0 012.658-2.516c.909-.7 1.827-1.25 2.754-1.645.926-.395 1.845-.593 2.754-.593 1.048 0 2.06.286 3.038.858.977.572 1.892 1.5 2.744 2.781.196.286.32.576.37.87.051.294.078.57.078.828 0 .613-.146 1.097-.44 1.452-.294.354-.643.53-1.044.53-.369 0-.711-.194-1.027-.583-.317-.388-.67-.944-1.061-1.667-.368-.654-.774-1.128-1.217-1.422a2.556 2.556 0 00-1.441-.439c-.805 0-1.667.335-2.582 1.003-.915.668-1.821 1.551-2.718 2.648a28.951 28.951 0 00-2.582 3.763 39.203 39.203 0 00-2.184 4.334 30.963 30.963 0 00-1.51 4.376c-.374 1.438-.56 2.73-.56 3.877 0 .381.025.773.078 1.175.053.401.149.768.294 1.095.143.327.339.597.587.807.247.211.56.317.94.317.426 0 .91-.143 1.45-.429a10.85 10.85 0 001.683-1.124c.581-.465 1.165-.99 1.753-1.575a28.007 28.007 0 002.985-3.506c.391-.553.685-1.032.88-1.442l1.605-4.804c.196-.518.453-.886.768-1.105.317-.218.643-.327.976-.327.16 0 .32.027.483.082a1.181 1.181 0 01.733.707c.074.184.112.4.112.644 0 .655-.057 1.268-.173 1.842a14.747 14.747 0 01-.44 1.676 27.86 27.86 0 01-.596 1.646 41.17 41.17 0 00-.635 1.725zm21.77 4.008a16.316 16.316 0 01-1.77 1.994 17.881 17.881 0 01-2.08 1.727c-.712.504-1.416.91-2.105 1.217-.691.307-1.312.46-1.865.46-.552 0-1-.184-1.347-.552-.345-.369-.517-.995-.517-1.883 0-.627.092-1.357.276-2.188-.3.533-.674 1.072-1.123 1.616a9.829 9.829 0 01-1.537 1.493c-.576.45-1.22.815-1.933 1.093-.713.28-1.49.419-2.331.419-.38 0-.746-.047-1.097-.143a2.306 2.306 0 01-.923-.49 2.447 2.447 0 01-.638-.93c-.16-.388-.241-.876-.241-1.461 0-.014.023-.222.069-.623.044-.402.191-1.036.44-1.902.247-.866.63-1.986 1.148-3.363.519-1.377 1.25-3.046 2.192-5.01.24-.518.52-.89.836-1.115a1.735 1.735 0 011.026-.337c.161 0 .328.024.502.07.172.05.333.124.484.226.149.102.27.23.362.388.092.156.14.337.14.542 0 .137-.019.267-.054.388-.056.233-.18.535-.372.91-.19.377-.411.806-.664 1.29-.252.483-.52 1.005-.803 1.565a22.239 22.239 0 00-.785 1.737c-.241.6-.449 1.21-.621 1.83a7.951 7.951 0 00-.294 1.81c0 .244.057.47.172.675.116.204.306.308.57.308.748 0 1.461-.245 2.141-.737a9.46 9.46 0 001.882-1.83 17.385 17.385 0 001.564-2.352 29.46 29.46 0 001.165-2.3 11.6 11.6 0 00.578-1.492c.166-.53.348-1.022.544-1.473.196-.45.42-.824.674-1.124.253-.3.57-.45.95-.45.413 0 .742.156.983.47.241.313.363.689.363 1.124 0 .245-.077.584-.233 1.012-.157.43-.351.921-.588 1.474-.235.552-.492 1.141-.768 1.768a31.14 31.14 0 00-.768 1.912 19.25 19.25 0 00-.587 1.902 7.181 7.181 0 00-.233 1.727c0 .492.252.737.76.737.356 0 .799-.124 1.33-.368a9.06 9.06 0 001.666-1.033 15.497 15.497 0 001.744-1.565 12.52 12.52 0 001.545-1.943l.17 2.78z" fill="#fff" stroke="#fff" stroke-width=".264" stroke-miterlimit="10"/><path d="M56.906 53.651c-.127.314-.25.678-.372 1.095-.121.415-.18.788-.18 1.115 0 .204.035.368.104.491.068.124.201.184.397.184.241 0 .543-.084.907-.256.362-.17.754-.396 1.173-.676.421-.278.858-.6 1.313-.962a40.452 40.452 0 002.642-2.29c.41-.39.774-.746 1.097-1.073a.765.765 0 01.327-.203c.125-.041.235-.061.327-.061.23 0 .421.096.57.286.149.19.223.443.223.756 0 .286-.08.607-.24.962-.161.354-.443.703-.847 1.042a51.66 51.66 0 01-2.227 2.29 22.963 22.963 0 01-2.235 1.911c-.742.553-1.478.991-2.209 1.32-.73.327-1.442.49-2.133.49-.472 0-.866-.074-1.183-.225a1.971 1.971 0 01-.76-.613 2.45 2.45 0 01-.406-.92 5.073 5.073 0 01-.121-1.125c0-.668.084-1.354.25-2.055.167-.701.365-1.346.596-1.931.404-1.064.811-2.12 1.226-3.17.414-1.05.794-2.011 1.14-2.883l5.23-13.19c.208-.53.486-.906.838-1.124.351-.217.706-.327 1.062-.327.357 0 .682.116.975.347.294.23.441.607.441 1.124 0 .245-.049.505-.147.778a9.758 9.758 0 01-.37.88c-.288.64-.63 1.423-1.026 2.35a383.171 383.171 0 00-2.676 6.43l-1.398 3.445c-.455 1.119-.88 2.178-1.277 3.18a269.476 269.476 0 00-1.03 2.608z" fill="#fff" stroke="#fff" stroke-width=".264" stroke-miterlimit="10"/><path d="M81.368 49.95c.161-.11.312-.199.449-.267a.888.888 0 01.398-.102.62.62 0 01.57.337c.127.225.19.501.19.828 0 .355-.077.715-.233 1.084a2.285 2.285 0 01-.7.92 180.067 180.067 0 00-3.296 2.985 35.624 35.624 0 01-2.737 2.321c-.858.649-1.694 1.148-2.51 1.503a6.522 6.522 0 01-2.625.53c-.876 0-1.552-.191-2.03-.571-.477-.382-.716-.907-.716-1.575v-.153c0-.047.005-.106.017-.174.045-.41.225-.88.535-1.41.311-.531.685-1.084 1.122-1.658.437-.574.903-1.151 1.399-1.737.495-.586.952-1.142 1.373-1.667a16.54 16.54 0 001.044-1.441c.276-.437.415-.79.415-1.064a.478.478 0 00-.172-.388c-.116-.096-.306-.143-.57-.143-.46 0-.935.12-1.424.359-.49.239-.974.558-1.45.96a12.88 12.88 0 00-1.398 1.38c-.455.52-.88 1.056-1.277 1.616a23.388 23.388 0 00-1.923 3.251c-.07.151-.167.363-.295.635-.127.273-.264.58-.413.92-.15.342-.307.692-.476 1.053-.166.362-.32.703-.456 1.022-.14.321-.263.605-.372.86-.11.253-.188.425-.233.521-.06.123-.153.354-.286.695-.134.341-.284.739-.459 1.197-.172.456-.354.936-.542 1.442-.19.505-.369.981-.535 1.432-.166.45-.314.844-.44 1.185-.128.34-.208.572-.244.695a7.67 7.67 0 01-.405 1.003c-.155.313-.333.59-.535.828a2.43 2.43 0 01-.691.572c-.259.143-.55.214-.872.214-.415 0-.756-.1-1.028-.296-.27-.198-.406-.576-.406-1.134 0-.272.036-.552.104-.838.069-.286.157-.57.259-.849.103-.28.21-.552.319-.816.11-.267.21-.521.302-.768.62-1.363 1.255-2.73 1.9-4.1a182.002 182.002 0 001.855-4.07 99.614 99.614 0 001.649-3.956 40.174 40.174 0 001.26-3.722c.091-.245.219-.594.38-1.044.16-.45.344-.893.551-1.33.208-.437.441-.815.7-1.134.258-.321.538-.48.836-.48.46 0 .793.106 1.001.317.208.212.311.521.311.93 0 .083-.011.212-.035.389a13.49 13.49 0 01-.198 1.124 2.858 2.858 0 01-.111.388c.425-.465.885-.923 1.38-1.381a14.25 14.25 0 011.538-1.238 8.884 8.884 0 011.622-.901 4.264 4.264 0 011.657-.347c.38 0 .756.055 1.13.165.374.11.707.268 1.001.48.294.211.533.477.717.797.184.321.276.691.276 1.114 0 .56-.14 1.156-.423 1.79a13.053 13.053 0 01-1.061 1.912c-.427.64-.888 1.265-1.381 1.87a69.44 69.44 0 01-1.391 1.658c-.431.497-.793.92-1.087 1.267-.294.349-.447.584-.458.705 0 .165.052.296.154.4.102.104.276.153.52.153.195 0 .483-.11.863-.328.38-.217.913-.595 1.597-1.134a81.455 81.455 0 002.607-2.168 273.083 273.083 0 003.893-3.424z" fill="#fff" stroke="#fff" stroke-width=".264" stroke-miterlimit="10"/></svg>