<svg width="50" height="50" viewBox="0 0 100 100" fill="none" xmlns="http://www.w3.org/2000/svg"><path fill-rule="evenodd" clip-rule="evenodd" d="M50 75.678c27.614 0 50-11.345 50-25.339 0-13.994-22.386-25.338-50-25.338S0 36.344 0 50.338s22.386 25.339 50 25.339z" fill="#6E81B6"/><path fill-rule="evenodd" clip-rule="evenodd" d="M60.133 58.529l2.48-12.765c.56-2.88.095-5.03-1.383-6.387-1.43-1.314-3.86-1.953-7.426-1.953H49.51l1.228-6.324a.814.814 0 00-.797-.969h-5.928a.813.813 0 00-.798.658L40.58 44.34c-.24-1.524-.83-2.835-1.774-3.917-1.74-1.99-4.49-3-8.176-3H19.14a.813.813 0 00-.798.659l-5.33 27.43a.81.81 0 00.798.968h5.974c.39 0 .724-.277.798-.66l1.29-6.634h4.447c2.334 0 4.295-.253 5.826-.75 1.566-.51 3.006-1.373 4.276-2.562a13.14 13.14 0 002.526-3.137l-1.065 5.48a.811.811 0 00.798.968h5.929a.814.814 0 00.798-.657l2.925-15.057H52.4c1.734 0 2.242.345 2.38.494.125.135.385.612.093 2.116l-2.358 12.136a.815.815 0 00.798.968h6.023a.81.81 0 00.797-.656zM32.65 47.982c-.373 1.914-1.074 3.278-2.086 4.056-1.028.793-2.672 1.195-4.887 1.195h-2.648l1.915-9.854h3.424c2.515 0 3.528.537 3.935.988.565.625.684 1.876.347 3.615zm52.455-7.559c-1.738-1.99-4.489-3-8.175-3H65.44a.813.813 0 00-.798.659l-5.33 27.43a.814.814 0 00.797.968h5.975c.39 0 .724-.277.798-.66l1.29-6.634h4.448c2.334 0 4.294-.253 5.825-.75 1.566-.51 3.007-1.373 4.276-2.562a13.104 13.104 0 002.59-3.247 13.16 13.16 0 001.41-3.915c.68-3.495.136-6.284-1.616-8.289zm-5.817 7.56c-.373 1.913-1.074 3.277-2.085 4.055-1.029.793-2.672 1.195-4.887 1.195h-2.648l1.914-9.854h3.424c2.516 0 3.529.537 3.936.988.563.625.683 1.876.346 3.615z" fill="#fff"/><path fill-rule="evenodd" clip-rule="evenodd" d="M28.197 42.566c2.27 0 3.783.418 4.54 1.256.755.838.935 2.277.54 4.316-.414 2.122-1.21 3.638-2.388 4.546-1.18.908-2.974 1.361-5.383 1.361h-3.634l2.23-11.48h4.095zm-14.558 23.1h5.974l1.418-7.292h5.118c2.258 0 4.116-.237 5.575-.712 1.458-.475 2.784-1.27 3.977-2.386a12.232 12.232 0 002.432-3.046c.62-1.11 1.06-2.334 1.32-3.673.633-3.252.155-5.785-1.43-7.599s-4.106-2.72-7.563-2.72H18.97l-5.331 27.428zM43.84 30.944h5.928l-1.417 7.293h5.282c3.322 0 5.615.58 6.876 1.738 1.262 1.16 1.64 3.038 1.135 5.635l-2.48 12.764h-6.022L55.5 46.237c.268-1.38.17-2.322-.297-2.824-.466-.502-1.458-.754-2.974-.754h-4.738l-3.054 15.715H38.51l5.331-27.43zm30.994 11.622c2.27 0 3.783.418 4.54 1.256.756.838.935 2.277.54 4.316-.413 2.122-1.208 3.638-2.388 4.546-1.178.908-2.973 1.361-5.38 1.361H68.51l2.23-11.48h4.094zm-14.56 23.1h5.976l1.417-7.292h5.118c2.26 0 4.117-.237 5.576-.712 1.458-.475 2.784-1.27 3.977-2.386a12.213 12.213 0 002.43-3.046 12.304 12.304 0 001.322-3.673c.632-3.252.155-5.785-1.43-7.599s-4.106-2.72-7.563-2.72h-11.49l-5.332 27.428z" fill="#000"/></svg>