<svg width="45" height="45" viewBox="0 0 100 100" fill="none" xmlns="http://www.w3.org/2000/svg"><path d="M7.107 50c0 16.978 9.867 31.65 24.175 38.603L10.82 32.543a42.73 42.73 0 00-3.714 17.456zm71.85-2.165c0-5.301-1.904-8.973-3.538-11.83-2.174-3.533-4.211-6.525-4.211-10.058 0-3.943 2.99-7.614 7.202-7.614.19 0 .37.024.556.035-7.632-6.992-17.799-11.26-28.965-11.26-14.985 0-28.17 7.688-35.839 19.333 1.007.03 1.956.05 2.76.05 4.487 0 11.432-.544 11.432-.544 2.312-.136 2.585 3.26.276 3.534 0 0-2.325.273-4.91.409l15.62 46.46 9.387-28.152-6.683-18.31c-2.31-.135-4.498-.408-4.498-.408-2.312-.136-2.04-3.67.27-3.533 0 0 7.084.544 11.299.544 4.486 0 11.431-.544 11.431-.544 2.314-.137 2.586 3.26.275 3.533 0 0-2.328.273-4.909.409l15.5 46.109L75.69 61.7c1.856-5.933 3.267-10.194 3.267-13.866z" fill="#00749A"/><path d="M50.753 53.751l-12.87 37.396A42.861 42.861 0 0050 92.895a42.87 42.87 0 0014.244-2.431 3.642 3.642 0 01-.305-.591L50.753 53.75zm36.885-24.33c.184 1.366.288 2.833.288 4.41 0 4.352-.813 9.245-3.261 15.363L71.563 87.076c12.752-7.437 21.33-21.252 21.33-37.077a42.66 42.66 0 00-5.255-20.579z" fill="#00749A"/><path d="M50 0C22.43 0 0 22.43 0 50c0 27.571 22.43 50 50 50s50.003-22.428 50.003-50.002C100.003 22.43 77.569 0 50.001 0zm0 97.709c-26.305 0-47.707-21.403-47.707-47.71C2.293 23.695 23.694 2.294 50 2.294c26.304 0 47.705 21.4 47.705 47.705 0 26.307-21.402 47.71-47.706 47.71z" fill="#00749A"/></svg>